{
.appVersion = "3134";
.formatVersion = 3;
DisplayStrings = (
"HH/Placeholder HOHO/Placeholder OO
.,-/.notdef 
ABCDEFGHIJKLMNOPQRSTUVWXYZ
0123456789 

"
);
axes = (
{
name = Weight;
tag = wght;
}
);
date = "2021-10-22 00:52:56 +0000";
familyName = "Sunday Collaborative Alphabet";
fontMaster = (
{
axesValues = (
10
);
id = m002;
metricValues = (
{
over = 16;
pos = 800;
},
{
over = 16;
pos = 700;
},
{
over = 16;
pos = 500;
},
{
over = -16;
},
{
over = -16;
pos = -200;
},
{
over = -16;
}
);
name = Hairline;
userData = {
GSOffsetHorizontal = 5;
GSOffsetKeepCompatible = 1;
GSOffsetMakeStroke = 1;
GSOffsetVertical = 5;
};
},
{
axesValues = (
200
);
id = m003;
metricValues = (
{
over = 16;
pos = 800;
},
{
over = 16;
pos = 700;
},
{
over = 16;
pos = 500;
},
{
over = -16;
},
{
over = -16;
pos = -200;
},
{
over = -16;
}
);
name = Black;
userData = {
GSOffsetHorizontal = 100;
GSOffsetKeepCompatible = 1;
GSOffsetMakeStroke = 1;
GSOffsetVertical = 100;
};
}
);
glyphs = (
{
glyphname = A;
lastChange = "2021-10-22 01:39:24 +0000";
layers = (
{
layerId = m002;
shapes = (
{
closed = 1;
nodes = (
(42,-33,l),
(52,-35,l),
(222,750,l),
(212,752,l)
);
},
{
closed = 1;
nodes = (
(87,-63,l),
(97,-65,l),
(267,720,l),
(257,722,l)
);
},
{
closed = 1;
nodes = (
(60,274,l),
(64,264,l),
(486,445,l),
(482,455,l)
);
},
{
closed = 1;
nodes = (
(97,460,l),
(93,450,l),
(557,230,l),
(561,240,l)
);
},
{
closed = 1;
nodes = (
(193,777,l),
(185,771,l),
(642,0,l),
(650,6,l)
);
}
);
width = 651;
},
{
layerId = m003;
shapes = (
{
closed = 1;
nodes = (
(10,-13,l),
(206,-55,l),
(376,730,l),
(180,772,l)
);
},
{
closed = 1;
nodes = (
(55,-43,l),
(251,-85,l),
(421,700,l),
(225,742,l)
);
},
{
closed = 1;
nodes = (
(84,361,l),
(162,177,l),
(584,358,l),
(506,542,l)
);
},
{
closed = 1;
nodes = (
(199,545,l),
(113,365,l),
(577,145,l),
(663,325,l)
);
},
{
closed = 1;
nodes = (
(336,825,l),
(164,723,l),
(621,-48,l),
(793,54,l)
);
}
);
width = 803;
}
);
unicode = 65;
},
{
glyphname = B;
lastChange = "2021-10-22 01:39:31 +0000";
layers = (
{
layerId = m002;
shapes = (
{
closed = 1;
nodes = (
(65,663,l),
(55,663,l),
(55,-13,l),
(65,-13,l)
);
},
{
closed = 1;
nodes = (
(140,725,l),
(130,725,l),
(130,36,l),
(140,36,l)
);
},
{
closed = 1;
nodes = (
(106,9,l),
(106,-1,l),
(430,26,l),
(430,36,l)
);
},
{
closed = 1;
nodes = (
(201,359,l),
(195,351,l),
(461,193,l),
(467,201,l)
);
},
{
closed = 1;
nodes = (
(186,385,l),
(192,377,l),
(402,543,l),
(396,551,l)
);
},
{
closed = 1;
nodes = (
(64,713,l),
(60,703,l),
(416,562,l),
(420,572,l)
);
},
{
closed = 1;
nodes = (
(112,427,l),
(102,427,l),
(102,163,l),
(112,163,l)
);
},
{
closed = 1;
nodes = (
(459,55,l),
(469,53,l),
(493,154,l),
(483,156,l)
);
}
);
width = 528;
},
{
layerId = m003;
shapes = (
{
closed = 1;
nodes = (
(230,663,l),
(30,663,l),
(30,-13,l),
(230,-13,l)
);
},
{
closed = 1;
nodes = (
(305,725,l),
(105,725,l),
(105,36,l),
(305,36,l)
);
},
{
closed = 1;
nodes = (
(168,104,l),
(184,-96,l),
(508,-69,l),
(492,131,l)
);
},
{
closed = 1;
nodes = (
(319,441,l),
(217,269,l),
(483,111,l),
(585,283,l)
);
},
{
closed = 1;
nodes = (
(197,459,l),
(321,303,l),
(531,469,l),
(407,625,l)
);
},
{
closed = 1;
nodes = (
(169,801,l),
(95,615,l),
(451,474,l),
(525,660,l)
);
},
{
closed = 1;
nodes = (
(277,427,l),
(77,427,l),
(77,163,l),
(277,163,l)
);
},
{
closed = 1;
nodes = (
(437,77,l),
(631,31,l),
(655,132,l),
(461,178,l)
);
}
);
width = 670;
}
);
unicode = 66;
},
{
glyphname = C;
lastChange = "2021-10-22 01:39:39 +0000";
layers = (
{
layerId = m002;
shapes = (
{
closed = 1;
nodes = (
(557,706,l),
(555,716,l),
(149,628,l),
(151,618,l)
);
},
{
closed = 1;
nodes = (
(136,607,l),
(126,609,l),
(41,304,l),
(51,302,l)
);
},
{
closed = 1;
nodes = (
(117,24,l),
(115,14,l),
(562,-31,l),
(564,-21,l)
);
},
{
closed = 1;
nodes = (
(189,591,l),
(179,591,l),
(163,44,l),
(173,44,l)
);
},
{
closed = 1;
nodes = (
(216,598,l),
(218,588,l),
(548,649,l),
(546,659,l)
);
},
{
closed = 1;
nodes = (
(45,290,l),
(35,288,l),
(99,35,l),
(109,37,l)
);
}
);
width = 583;
},
{
layerId = m003;
shapes = (
{
closed = 1;
nodes = (
(649,613,l),
(607,809,l),
(201,721,l),
(243,525,l)
);
},
{
closed = 1;
nodes = (
(299,581,l),
(107,635,l),
(22,330,l),
(214,276,l)
);
},
{
closed = 1;
nodes = (
(198,118,l),
(178,-80,l),
(625,-125,l),
(645,73,l)
);
},
{
closed = 1;
nodes = (
(356,588,l),
(156,594,l),
(140,47,l),
(340,41,l)
);
},
{
closed = 1;
nodes = (
(271,691,l),
(307,495,l),
(637,556,l),
(601,752,l)
);
},
{
closed = 1;
nodes = (
(209,314,l),
(15,264,l),
(79,11,l),
(273,61,l)
);
}
);
width = 654;
}
);
unicode = 67;
},
{
glyphname = D;
lastChange = "2021-10-22 01:39:43 +0000";
layers = (
{
layerId = m002;
shapes = (
{
closed = 1;
nodes = (
(107,687,l),
(97,687,l),
(97,11,l),
(107,11,l)
);
},
{
closed = 1;
nodes = (
(192,704,l),
(186,696,l),
(561,385,l),
(567,393,l)
);
},
{
closed = 1;
nodes = (
(574,332,l),
(566,340,l),
(199,-22,l),
(207,-30,l)
);
},
{
closed = 1;
nodes = (
(159,719,l),
(149,719,l),
(149,-26,l),
(159,-26,l)
);
}
);
width = 600;
},
{
layerId = m003;
shapes = (
{
closed = 1;
nodes = (
(230,687,l),
(30,687,l),
(30,11,l),
(230,11,l)
);
},
{
closed = 1;
nodes = (
(281,777,l),
(153,623,l),
(528,312,l),
(656,466,l)
);
},
{
closed = 1;
nodes = (
(668,265,l),
(528,407,l),
(161,45,l),
(301,-97,l)
);
},
{
closed = 1;
nodes = (
(282,719,l),
(82,719,l),
(82,-26,l),
(282,-26,l)
);
}
);
width = 683;
}
);
unicode = 68;
},
{
glyphname = E;
lastChange = "2021-10-22 01:39:48 +0000";
layers = (
{
layerId = m002;
shapes = (
{
closed = 1;
nodes = (
(117,647,l),
(107,647,l),
(107,-25,l),
(117,-25,l)
);
},
{
closed = 1;
nodes = (
(65,700,l),
(55,700,l),
(55,0,l),
(65,0,l)
);
},
{
closed = 1;
nodes = (
(109,687,l),
(109,677,l),
(490,695,l),
(490,705,l)
);
},
{
closed = 1;
nodes = (
(132,421,l),
(132,411,l),
(400,414,l),
(400,424,l)
);
},
{
closed = 1;
nodes = (
(137,305,l),
(143,297,l),
(271,378,l),
(265,386,l)
);
},
{
closed = 1;
nodes = (
(143,5,l),
(143,-5,l),
(459,-5,l),
(459,5,l)
);
}
);
width = 510;
},
{
layerId = m003;
shapes = (
{
closed = 1;
nodes = (
(282,647,l),
(82,647,l),
(82,-25,l),
(282,-25,l)
);
},
{
closed = 1;
nodes = (
(230,700,l),
(30,700,l),
(30,0,l),
(230,0,l)
);
},
{
closed = 1;
nodes = (
(174,782,l),
(184,582,l),
(565,600,l),
(555,800,l)
);
},
{
closed = 1;
nodes = (
(201,516,l),
(203,316,l),
(471,319,l),
(469,519,l)
);
},
{
closed = 1;
nodes = (
(157,386,l),
(263,216,l),
(391,297,l),
(285,467,l)
);
},
{
closed = 1;
nodes = (
(213,100,l),
(213,-100,l),
(529,-100,l),
(529,100,l)
);
}
);
width = 575;
}
);
unicode = 69;
},
{
glyphname = F;
lastChange = "2021-10-22 01:39:52 +0000";
layers = (
{
layerId = m002;
shapes = (
{
closed = 1;
nodes = (
(139,705,l),
(139,695,l),
(552,695,l),
(552,705,l)
);
},
{
closed = 1;
nodes = (
(92,700,l),
(82,700,l),
(82,258,l),
(92,258,l)
);
},
{
closed = 1;
nodes = (
(156,634,l),
(146,634,l),
(146,-92,l),
(156,-92,l)
);
},
{
closed = 1;
nodes = (
(50,419,l),
(50,409,l),
(411,409,l),
(411,419,l)
);
},
{
closed = 1;
nodes = (
(92,218,l),
(82,218,l),
(82,-3,l),
(92,-3,l)
);
}
);
width = 562;
},
{
layerId = m003;
shapes = (
{
closed = 1;
nodes = (
(182,800,l),
(182,600,l),
(595,600,l),
(595,800,l)
);
},
{
closed = 1;
nodes = (
(230,700,l),
(30,700,l),
(30,258,l),
(230,258,l)
);
},
{
closed = 1;
nodes = (
(294,634,l),
(94,634,l),
(94,-92,l),
(294,-92,l)
);
},
{
closed = 1;
nodes = (
(93,514,l),
(93,314,l),
(454,314,l),
(454,514,l)
);
},
{
closed = 1;
nodes = (
(230,218,l),
(30,218,l),
(30,-3,l),
(230,-3,l)
);
}
);
width = 605;
}
);
unicode = 70;
},
{
glyphname = G;
lastChange = "2021-10-22 01:40:02 +0000";
layers = (
{
layerId = m002;
shapes = (
{
closed = 1;
nodes = (
(262,710,l),
(258,720,l),
(84,655,l),
(88,645,l)
);
},
{
closed = 1;
nodes = (
(65,632,l),
(55,632,l),
(45,32,l),
(55,32,l)
);
},
{
closed = 1;
nodes = (
(95,-1,l),
(97,-11,l),
(555,123,l),
(553,133,l)
);
},
{
closed = 1;
nodes = (
(420,443,l),
(412,439,l),
(550,168,l),
(558,172,l)
);
},
{
closed = 1;
nodes = (
(243,406,l),
(247,396,l),
(596,506,l),
(592,516,l)
);
}
);
width = 619;
},
{
layerId = m003;
shapes = (
{
closed = 1;
nodes = (
(371,621,l),
(301,809,l),
(127,744,l),
(197,556,l)
);
},
{
closed = 1;
nodes = (
(236,630,l),
(36,634,l),
(26,34,l),
(226,30,l)
);
},
{
closed = 1;
nodes = (
(144,90,l),
(200,-102,l),
(658,32,l),
(602,224,l)
);
},
{
closed = 1;
nodes = (
(581,486,l),
(403,396,l),
(541,125,l),
(719,215,l)
);
},
{
closed = 1;
nodes = (
(291,496,l),
(351,306,l),
(700,416,l),
(640,606,l)
);
}
);
width = 729;
}
);
unicode = 71;
},
{
glyphname = H;
lastChange = "2021-10-22 01:39:06 +0000";
layers = (
{
layerId = m002;
shapes = (
{
closed = 1;
nodes = (
(145,729,l),
(135,729,l),
(135,0,l),
(145,0,l)
);
},
{
closed = 1;
nodes = (
(171,386,l),
(171,376,l),
(583,376,l),
(583,386,l)
);
},
{
closed = 1;
nodes = (
(545,699,l),
(535,699,l),
(535,-48,l),
(545,-48,l)
);
},
{
closed = 1;
nodes = (
(82,640,l),
(72,640,l),
(72,0,l),
(82,0,l)
);
},
{
closed = 1;
nodes = (
(52,457,l),
(50,447,l),
(213,409,l),
(215,419,l)
);
}
);
width = 618;
},
{
layerId = m003;
shapes = (
{
closed = 1;
nodes = (
(293,729,l),
(93,729,l),
(93,0,l),
(293,0,l)
);
},
{
closed = 1;
nodes = (
(224,481,l),
(224,281,l),
(636,281,l),
(636,481,l)
);
},
{
closed = 1;
nodes = (
(693,699,l),
(493,699,l),
(493,-48,l),
(693,-48,l)
);
},
{
closed = 1;
nodes = (
(230,640,l),
(30,640,l),
(30,0,l),
(230,0,l)
);
},
{
closed = 1;
nodes = (
(127,549,l),
(81,355,l),
(244,317,l),
(290,511,l)
);
}
);
width = 723;
}
);
unicode = 72;
},
{
glyphname = I;
lastChange = "2021-10-22 01:40:09 +0000";
layers = (
{
layerId = m002;
shapes = (
{
closed = 1;
nodes = (
(167,518,l),
(157,518,l),
(157,45,l),
(167,45,l)
);
},
{
closed = 1;
nodes = (
(72,546,l),
(72,536,l),
(337,536,l),
(337,546,l)
);
},
{
closed = 1;
nodes = (
(97,772,l),
(97,762,l),
(295,762,l),
(295,772,l)
);
},
{
closed = 1;
nodes = (
(138,705,l),
(138,695,l),
(258,695,l),
(258,705,l)
);
},
{
closed = 1;
nodes = (
(30,6,l),
(30,-4,l),
(359,-4,l),
(359,6,l)
);
},
{
closed = 1;
nodes = (
(235,505,l),
(225,505,l),
(225,34,l),
(235,34,l)
);
}
);
width = 389;
},
{
layerId = m003;
shapes = (
{
closed = 1;
nodes = (
(258,518,l),
(58,518,l),
(58,45,l),
(258,45,l)
);
},
{
closed = 1;
nodes = (
(68,641,l),
(68,441,l),
(333,441,l),
(333,641,l)
);
},
{
closed = 1;
nodes = (
(93,867,l),
(93,667,l),
(291,667,l),
(291,867,l)
);
},
{
closed = 1;
nodes = (
(134,800,l),
(134,600,l),
(254,600,l),
(254,800,l)
);
},
{
closed = 1;
nodes = (
(26,101,l),
(26,-99,l),
(355,-99,l),
(355,101,l)
);
},
{
closed = 1;
nodes = (
(326,505,l),
(126,505,l),
(126,34,l),
(326,34,l)
);
}
);
width = 385;
}
);
unicode = 73;
},
{
glyphname = J;
lastChange = "2021-10-22 01:40:18 +0000";
layers = (
{
layerId = m002;
shapes = (
{
closed = 1;
nodes = (
(20,705,l),
(20,695,l),
(562,661,l),
(562,671,l)
);
},
{
closed = 1;
nodes = (
(555,589,l),
(555,599,l),
(21,634,l),
(21,624,l)
);
},
{
closed = 1;
nodes = (
(441,640,l),
(431,640,l),
(402,52,l),
(412,52,l)
);
},
{
closed = 1;
nodes = (
(55,-36,l),
(53,-46,l),
(293,-84,l),
(295,-74,l)
);
},
{
closed = 1;
nodes = (
(373,474,l),
(363,474,l),
(333,-41,l),
(343,-41,l)
);
},
{
closed = 1;
nodes = (
(281,655,l),
(273,649,l),
(361,515,l),
(369,521,l)
);
}
);
width = 572;
},
{
layerId = m003;
shapes = (
{
closed = 1;
nodes = (
(22,800,l),
(10,600,l),
(552,566,l),
(564,766,l)
);
},
{
closed = 1;
nodes = (
(544,494,l),
(558,694,l),
(24,729,l),
(10,529,l)
);
},
{
closed = 1;
nodes = (
(532,635,l),
(332,645,l),
(303,57,l),
(503,47,l)
);
},
{
closed = 1;
nodes = (
(66,58,l),
(34,-140,l),
(274,-178,l),
(306,20,l)
);
},
{
closed = 1;
nodes = (
(464,468,l),
(264,480,l),
(234,-35,l),
(434,-47,l)
);
},
{
closed = 1;
nodes = (
(357,707,l),
(189,597,l),
(277,463,l),
(445,573,l)
);
}
);
width = 584;
}
);
unicode = 74;
},
{
glyphname = K;
lastChange = "2021-10-22 01:40:26 +0000";
layers = (
{
layerId = m002;
shapes = (
{
closed = 1;
nodes = (
(66,700,l),
(56,700,l),
(56,445,l),
(66,445,l)
);
},
{
closed = 1;
nodes = (
(66,387,l),
(56,387,l),
(56,42,l),
(66,42,l)
);
},
{
closed = 1;
nodes = (
(141,735,l),
(131,735,l),
(131,-12,l),
(141,-12,l)
);
},
{
closed = 1;
nodes = (
(162,395,l),
(168,387,l),
(543,696,l),
(537,704,l)
);
},
{
closed = 1;
nodes = (
(230,483,l),
(222,477,l),
(619,-50,l),
(627,-44,l)
);
}
);
width = 633;
},
{
layerId = m003;
shapes = (
{
closed = 1;
nodes = (
(230,700,l),
(30,700,l),
(30,445,l),
(230,445,l)
);
},
{
closed = 1;
nodes = (
(230,387,l),
(30,387,l),
(30,42,l),
(230,42,l)
);
},
{
closed = 1;
nodes = (
(305,735,l),
(105,735,l),
(105,-12,l),
(305,-12,l)
);
},
{
closed = 1;
nodes = (
(170,468,l),
(298,314,l),
(673,623,l),
(545,777,l)
);
},
{
closed = 1;
nodes = (
(375,540,l),
(215,420,l),
(612,-107,l),
(772,13,l)
);
}
);
width = 742;
}
);
unicode = 75;
},
{
glyphname = L;
lastChange = "2021-10-22 01:40:34 +0000";
layers = (
{
layerId = m002;
shapes = (
{
closed = 1;
nodes = (
(133,5,l),
(133,-5,l),
(510,-5,l),
(510,5,l)
);
},
{
closed = 1;
nodes = (
(151,700,l),
(141,700,l),
(141,57,l),
(151,57,l)
);
},
{
closed = 1;
nodes = (
(65,643,l),
(55,643,l),
(55,0,l),
(65,0,l)
);
}
);
width = 520;
},
{
layerId = m003;
shapes = (
{
closed = 1;
nodes = (
(203,100,l),
(203,-100,l),
(580,-100,l),
(580,100,l)
);
},
{
closed = 1;
nodes = (
(316,700,l),
(116,700,l),
(116,57,l),
(316,57,l)
);
},
{
closed = 1;
nodes = (
(230,643,l),
(30,643,l),
(30,0,l),
(230,0,l)
);
}
);
width = 590;
}
);
unicode = 76;
},
{
glyphname = M;
lastChange = "2021-10-22 01:40:39 +0000";
layers = (
{
layerId = m002;
shapes = (
{
closed = 1;
nodes = (
(47,8,l),
(57,8,l),
(57,567,l),
(47,567,l)
);
},
{
closed = 1;
nodes = (
(64,598,l),
(70,590,l),
(193,692,l),
(187,700,l)
);
},
{
closed = 1;
nodes = (
(221,665,l),
(211,661,l),
(317,346,l),
(327,350,l)
);
},
{
closed = 1;
nodes = (
(351,329,l),
(359,325,l),
(554,683,l),
(546,687,l)
);
},
{
closed = 1;
nodes = (
(612,683,l),
(602,683,l),
(636,-4,l),
(646,-4,l)
);
},
{
closed = 1;
nodes = (
(114,515,l),
(104,515,l),
(104,96,l),
(114,96,l)
);
}
);
width = 691;
},
{
layerId = m003;
shapes = (
{
closed = 1;
nodes = (
(30,8,l),
(230,8,l),
(230,567,l),
(30,567,l)
);
},
{
closed = 1;
nodes = (
(81,671,l),
(209,517,l),
(332,619,l),
(204,773,l)
);
},
{
closed = 1;
nodes = (
(389,695,l),
(199,631,l),
(305,316,l),
(495,380,l)
);
},
{
closed = 1;
nodes = (
(345,375,l),
(521,279,l),
(716,637,l),
(540,733,l)
);
},
{
closed = 1;
nodes = (
(785,688,l),
(585,678,l),
(619,-9,l),
(819,1,l)
);
},
{
closed = 1;
nodes = (
(287,515,l),
(87,515,l),
(87,96,l),
(287,96,l)
);
}
);
width = 849;
}
);
unicode = 77;
},
{
glyphname = N;
lastChange = "2021-10-22 01:40:42 +0000";
layers = (
{
layerId = m002;
shapes = (
{
closed = 1;
nodes = (
(577,700,l),
(567,700,l),
(567,0,l),
(577,0,l)
);
},
{
closed = 1;
nodes = (
(528,683,l),
(518,685,l),
(456,172,l),
(466,170,l)
);
},
{
closed = 1;
nodes = (
(503,123,l),
(511,129,l),
(119,703,l),
(111,697,l)
);
},
{
closed = 1;
nodes = (
(85,553,l),
(77,547,l),
(509,-8,l),
(517,-2,l)
);
},
{
closed = 1;
nodes = (
(45,-7,l),
(55,-7,l),
(55,700,l),
(45,700,l)
);
}
);
width = 632;
},
{
layerId = m003;
shapes = (
{
closed = 1;
nodes = (
(752,700,l),
(552,700,l),
(552,0,l),
(752,0,l)
);
},
{
closed = 1;
nodes = (
(702,672,l),
(504,696,l),
(442,183,l),
(640,159,l)
);
},
{
closed = 1;
nodes = (
(504,70,l),
(670,182,l),
(278,756,l),
(112,644,l)
);
},
{
closed = 1;
nodes = (
(240,611,l),
(82,489,l),
(514,-66,l),
(672,56,l)
);
},
{
closed = 1;
nodes = (
(30,-7,l),
(230,-7,l),
(230,700,l),
(30,700,l)
);
}
);
width = 782;
}
);
unicode = 78;
},
{
glyphname = O;
lastChange = "2021-10-22 01:39:13 +0000";
layers = (
{
layerId = m002;
shapes = (
{
closed = 1;
nodes = (
(110,623,l),
(114,615,l),
(270,696,l),
(266,704,l)
);
},
{
closed = 1;
nodes = (
(315,704,l),
(309,696,l),
(483,595,l),
(489,603,l)
);
},
{
closed = 1;
nodes = (
(501,569,l),
(493,565,l),
(600,370,l),
(608,374,l)
);
},
{
closed = 1;
nodes = (
(602,317,l),
(594,323,l),
(317,-6,l),
(325,-12,l)
);
},
{
closed = 1;
nodes = (
(254,-14,l),
(262,-8,l),
(89,210,l),
(81,204,l)
);
},
{
closed = 1;
nodes = (
(63,242,l),
(73,242,l),
(72,531,l),
(62,531,l)
);
},
{
closed = 1;
nodes = (
(85,405,l),
(93,399,l),
(259,652,l),
(251,658,l)
);
}
);
width = 638;
},
{
layerId = m003;
shapes = (
{
closed = 1;
nodes = (
(114,708,l),
(206,530,l),
(362,611,l),
(270,789,l)
);
},
{
closed = 1;
nodes = (
(410,786,l),
(310,614,l),
(484,513,l),
(584,685,l)
);
},
{
closed = 1;
nodes = (
(633,615,l),
(457,519,l),
(564,324,l),
(740,420,l)
);
},
{
closed = 1;
nodes = (
(722,256,l),
(570,384,l),
(293,55,l),
(445,-73,l)
);
},
{
closed = 1;
nodes = (
(228,-73,l),
(384,51,l),
(211,269,l),
(55,145,l)
);
},
{
closed = 1;
nodes = (
(16,242,l),
(216,242,l),
(215,531,l),
(15,531,l)
);
},
{
closed = 1;
nodes = (
(53,457,l),
(221,347,l),
(387,600,l),
(219,710,l)
);
}
);
width = 755;
}
);
unicode = 79;
},
{
glyphname = P;
lastChange = "2021-10-22 01:40:51 +0000";
layers = (
{
layerId = m002;
shapes = (
{
closed = 1;
nodes = (
(67,701,l),
(57,699,l),
(90,383,l),
(100,385,l)
);
},
{
closed = 1;
nodes = (
(152,711,l),
(142,711,l),
(129,-39,l),
(139,-39,l)
);
},
{
closed = 1;
nodes = (
(534,713,l),
(524,711,l),
(598,448,l),
(608,450,l)
);
},
{
closed = 1;
nodes = (
(586,427,l),
(584,437,l),
(181,342,l),
(183,332,l)
);
},
{
closed = 1;
nodes = (
(494,712,l),
(492,722,l),
(180,681,l),
(182,671,l)
);
},
{
closed = 1;
nodes = (
(102,336,l),
(92,338,l),
(40,1,l),
(50,-1,l)
);
}
);
width = 638;
},
{
layerId = m003;
shapes = (
{
closed = 1;
nodes = (
(241,710,l),
(43,690,l),
(76,374,l),
(274,394,l)
);
},
{
closed = 1;
nodes = (
(327,709,l),
(127,713,l),
(114,-37,l),
(314,-41,l)
);
},
{
closed = 1;
nodes = (
(705,739,l),
(513,685,l),
(587,422,l),
(779,476,l)
);
},
{
closed = 1;
nodes = (
(688,335,l),
(642,529,l),
(239,434,l),
(285,240,l)
);
},
{
closed = 1;
nodes = (
(586,618,l),
(560,816,l),
(248,775,l),
(274,577,l)
);
},
{
closed = 1;
nodes = (
(276,322,l),
(78,352,l),
(26,15,l),
(224,-15,l)
);
}
);
width = 791;
}
);
unicode = 80;
},
{
glyphname = Q;
lastChange = "2021-10-22 01:41:05 +0000";
layers = (
{
layerId = m002;
shapes = (
{
closed = 1;
nodes = (
(66,698,l),
(66,688,l),
(375,715,l),
(375,725,l)
);
},
{
closed = 1;
nodes = (
(406,699,l),
(398,693,l),
(501,571,l),
(509,577,l)
);
},
{
closed = 1;
nodes = (
(510,547,l),
(500,547,l),
(500,295,l),
(510,295,l)
);
},
{
closed = 1;
nodes = (
(507,248,l),
(497,248,l),
(483,24,l),
(493,24,l)
);
},
{
closed = 1;
nodes = (
(459,-5,l),
(459,5,l),
(138,5,l),
(138,-5,l)
);
},
{
closed = 1;
nodes = (
(55,33,l),
(65,33,l),
(65,640,l),
(55,640,l)
);
},
{
closed = 1;
nodes = (
(153,646,l),
(143,646,l),
(140,142,l),
(150,142,l)
);
},
{
closed = 1;
nodes = (
(130,98,l),
(130,88,l),
(375,80,l),
(375,90,l)
);
},
{
closed = 1;
nodes = (
(278,317,l),
(270,311,l),
(603,-67,l),
(611,-61,l)
);
}
);
width = 607;
},
{
layerId = m003;
shapes = (
{
closed = 1;
nodes = (
(127,793,l),
(145,593,l),
(454,620,l),
(436,820,l)
);
},
{
closed = 1;
nodes = (
(548,761,l),
(396,631,l),
(499,509,l),
(651,639,l)
);
},
{
closed = 1;
nodes = (
(675,547,l),
(475,547,l),
(475,295,l),
(675,295,l)
);
},
{
closed = 1;
nodes = (
(672,242,l),
(472,254,l),
(458,30,l),
(658,18,l)
);
},
{
closed = 1;
nodes = (
(529,-100,l),
(529,100,l),
(208,100,l),
(208,-100,l)
);
},
{
closed = 1;
nodes = (
(30,33,l),
(230,33,l),
(230,640,l),
(30,640,l)
);
},
{
closed = 1;
nodes = (
(318,645,l),
(118,647,l),
(115,143,l),
(315,141,l)
);
},
{
closed = 1;
nodes = (
(203,193,l),
(197,-7,l),
(442,-15,l),
(448,185,l)
);
},
{
closed = 1;
nodes = (
(419,380,l),
(269,248,l),
(602,-130,l),
(752,2,l)
);
}
);
width = 757;
}
);
unicode = 81;
},
{
glyphname = R;
lastChange = "2021-10-22 01:41:13 +0000";
layers = (
{
layerId = m002;
shapes = (
{
closed = 1;
nodes = (
(65,700,l),
(55,700,l),
(55,-14,l),
(65,-14,l)
);
},
{
closed = 1;
nodes = (
(139,616,l),
(129,616,l),
(129,-4,l),
(139,-4,l)
);
},
{
closed = 1;
nodes = (
(432,687,l),
(432,697,l),
(129,704,l),
(129,694,l)
);
},
{
closed = 1;
nodes = (
(185,328,l),
(187,318,l),
(388,368,l),
(386,378,l)
);
},
{
closed = 1;
nodes = (
(405,404,l),
(415,402,l),
(473,661,l),
(463,663,l)
);
},
{
closed = 1;
nodes = (
(232,433,l),
(224,427,l),
(483,-17,l),
(491,-11,l)
);
}
);
width = 507;
},
{
layerId = m003;
shapes = (
{
closed = 1;
nodes = (
(230,700,l),
(30,700,l),
(30,-14,l),
(230,-14,l)
);
},
{
closed = 1;
nodes = (
(304,616,l),
(104,616,l),
(104,-4,l),
(304,-4,l)
);
},
{
closed = 1;
nodes = (
(500,592,l),
(504,792,l),
(201,799,l),
(197,599,l)
);
},
{
closed = 1;
nodes = (
(232,420,l),
(280,226,l),
(481,276,l),
(433,470,l)
);
},
{
closed = 1;
nodes = (
(382,425,l),
(578,381,l),
(636,640,l),
(440,684,l)
);
},
{
closed = 1;
nodes = (
(384,480,l),
(212,380,l),
(471,-64,l),
(643,36,l)
);
}
);
width = 653;
}
);
unicode = 82;
},
{
glyphname = S;
lastChange = "2021-10-22 01:41:21 +0000";
layers = (
{
layerId = m002;
shapes = (
{
closed = 1;
nodes = (
(476,689,l),
(476,699,l),
(101,682,l),
(101,672,l)
);
},
{
closed = 1;
nodes = (
(263,723,l),
(257,731,l),
(61,592,l),
(67,584,l)
);
},
{
closed = 1;
nodes = (
(217,642,l),
(207,642,l),
(214,300,l),
(224,300,l)
);
},
{
closed = 1;
nodes = (
(40,565,l),
(30,563,l),
(102,299,l),
(112,301,l)
);
},
{
closed = 1;
nodes = (
(178,272,l),
(174,264,l),
(494,104,l),
(498,112,l)
);
},
{
closed = 1;
nodes = (
(504,43,l),
(502,53,l),
(81,-28,l),
(83,-38,l)
);
},
{
closed = 1;
nodes = (
(137,548,l),
(127,546,l),
(155,293,l),
(165,295,l)
);
}
);
width = 523;
},
{
layerId = m003;
shapes = (
{
closed = 1;
nodes = (
(554,594,l),
(544,794,l),
(169,777,l),
(179,577,l)
);
},
{
closed = 1;
nodes = (
(391,645,l),
(275,809,l),
(79,670,l),
(195,506,l)
);
},
{
closed = 1;
nodes = (
(385,644,l),
(185,640,l),
(192,298,l),
(392,302,l)
);
},
{
closed = 1;
nodes = (
(204,590,l),
(12,538,l),
(84,274,l),
(276,326,l)
);
},
{
closed = 1;
nodes = (
(294,357,l),
(204,179,l),
(524,19,l),
(614,197,l)
);
},
{
closed = 1;
nodes = (
(595,-50,l),
(557,146,l),
(136,65,l),
(174,-131,l)
);
},
{
closed = 1;
nodes = (
(304,558,l),
(106,536,l),
(134,283,l),
(332,305,l)
);
}
);
width = 624;
}
);
unicode = 83;
},
{
glyphname = T;
lastChange = "2021-10-22 01:41:28 +0000";
layers = (
{
layerId = m002;
shapes = (
{
closed = 1;
nodes = (
(338,700,l),
(328,700,l),
(328,0,l),
(338,0,l)
);
},
{
closed = 1;
nodes = (
(25,506,l),
(25,496,l),
(272,473,l),
(272,483,l)
);
},
{
closed = 1;
nodes = (
(547,519,l),
(545,529,l),
(301,484,l),
(303,474,l)
);
},
{
closed = 1;
nodes = (
(236,697,l),
(226,697,l),
(273,-24,l),
(283,-24,l)
);
}
);
width = 571;
},
{
layerId = m003;
shapes = (
{
closed = 1;
nodes = (
(422,700,l),
(222,700,l),
(222,0,l),
(422,0,l)
);
},
{
closed = 1;
nodes = (
(23,601,l),
(5,401,l),
(252,378,l),
(270,578,l)
);
},
{
closed = 1;
nodes = (
(553,426,l),
(517,622,l),
(273,577,l),
(309,381,l)
);
},
{
closed = 1;
nodes = (
(320,704,l),
(120,690,l),
(167,-31,l),
(367,-17,l)
);
}
);
width = 560;
}
);
unicode = 84;
},
{
glyphname = U;
lastChange = "2021-10-22 01:41:36 +0000";
layers = (
{
layerId = m002;
shapes = (
{
closed = 1;
nodes = (
(50,709,l),
(40,709,l),
(108,28,l),
(118,28,l)
);
},
{
closed = 1;
nodes = (
(114,705,l),
(104,703,l),
(166,99,l),
(176,101,l)
);
},
{
closed = 1;
nodes = (
(186,45,l),
(184,35,l),
(404,3,l),
(406,13,l)
);
},
{
closed = 1;
nodes = (
(448,12,l),
(458,12,l),
(492,700,l),
(482,700,l)
);
}
);
width = 537;
},
{
layerId = m003;
shapes = (
{
closed = 1;
nodes = (
(226,719,l),
(26,699,l),
(94,18,l),
(294,38,l)
);
},
{
closed = 1;
nodes = (
(289,714,l),
(91,694,l),
(153,90,l),
(351,110,l)
);
},
{
closed = 1;
nodes = (
(280,139,l),
(252,-59,l),
(472,-91,l),
(500,107,l)
);
},
{
closed = 1;
nodes = (
(434,17,l),
(634,7,l),
(668,695,l),
(468,705,l)
);
}
);
width = 694;
}
);
unicode = 85;
},
{
glyphname = V;
lastChange = "2021-10-22 01:41:42 +0000";
layers = (
{
layerId = m002;
shapes = (
{
closed = 1;
nodes = (
(15,698,l),
(5,694,l),
(296,-21,l),
(306,-17,l)
);
},
{
closed = 1;
nodes = (
(89,702,l),
(79,698,l),
(306,158,l),
(316,162,l)
);
},
{
closed = 1;
nodes = (
(347,1,l),
(357,-1,l),
(566,699,l),
(556,701,l)
);
},
{
closed = 1;
nodes = (
(290,88,l),
(298,82,l),
(378,167,l),
(370,173,l)
);
}
);
width = 571;
},
{
layerId = m003;
shapes = (
{
closed = 1;
nodes = (
(186,734,l),
(0,658,l),
(291,-57,l),
(477,19,l)
);
},
{
closed = 1;
nodes = (
(259,739,l),
(75,661,l),
(302,121,l),
(486,199,l)
);
},
{
closed = 1;
nodes = (
(339,29,l),
(531,-29,l),
(740,671,l),
(548,729,l)
);
},
{
closed = 1;
nodes = (
(304,154,l),
(450,16,l),
(530,101,l),
(384,239,l)
);
}
);
width = 740;
}
);
unicode = 86;
},
{
glyphname = W;
lastChange = "2021-10-22 01:41:47 +0000";
layers = (
{
layerId = m002;
shapes = (
{
closed = 1;
nodes = (
(20,701,l),
(10,699,l),
(116,-11,l),
(126,-9,l)
);
},
{
closed = 1;
nodes = (
(152,-10,l),
(162,-12,l),
(335,697,l),
(325,699,l)
);
},
{
closed = 1;
nodes = (
(285,695,l),
(285,705,l),
(50,705,l),
(50,695,l)
);
},
{
closed = 1;
nodes = (
(326,520,l),
(316,518,l),
(421,40,l),
(431,42,l)
);
},
{
closed = 1;
nodes = (
(465,-25,l),
(475,-27,l),
(568,323,l),
(558,325,l)
);
},
{
closed = 1;
nodes = (
(463,186,l),
(473,184,l),
(610,699,l),
(600,701,l)
);
}
);
width = 620;
},
{
layerId = m003;
shapes = (
{
closed = 1;
nodes = (
(203,715,l),
(5,685,l),
(111,-25,l),
(309,5,l)
);
},
{
closed = 1;
nodes = (
(149,13,l),
(343,-35,l),
(516,674,l),
(322,722,l)
);
},
{
closed = 1;
nodes = (
(374,600,l),
(374,800,l),
(139,800,l),
(139,600,l)
);
},
{
closed = 1;
nodes = (
(508,540,l),
(312,498,l),
(417,20,l),
(613,62,l)
);
},
{
closed = 1;
nodes = (
(462,0,l),
(656,-52,l),
(749,298,l),
(555,350,l)
);
},
{
closed = 1;
nodes = (
(460,211,l),
(654,159,l),
(791,674,l),
(597,726,l)
);
}
);
width = 796;
}
);
unicode = 87;
},
{
glyphname = X;
lastChange = "2021-10-22 01:41:53 +0000";
layers = (
{
layerId = m002;
shapes = (
{
closed = 1;
nodes = (
(102,703,l),
(94,697,l),
(518,-3,l),
(526,3,l)
);
},
{
closed = 1;
nodes = (
(19,677,l),
(11,671,l),
(362,156,l),
(370,162,l)
);
},
{
closed = 1;
nodes = (
(343,374,l),
(351,368,l),
(571,697,l),
(563,703,l)
);
},
{
closed = 1;
nodes = (
(58,-3,l),
(66,-9,l),
(486,702,l),
(478,708,l)
);
}
);
width = 582;
},
{
layerId = m003;
shapes = (
{
closed = 1;
nodes = (
(252,752,l),
(80,648,l),
(504,-52,l),
(676,52,l)
);
},
{
closed = 1;
nodes = (
(166,730,l),
(0,618,l),
(351,103,l),
(517,215,l)
);
},
{
closed = 1;
nodes = (
(332,427,l),
(498,315,l),
(718,644,l),
(552,756,l)
);
},
{
closed = 1;
nodes = (
(44,45,l),
(216,-57,l),
(636,654,l),
(464,756,l)
);
}
);
width = 718;
}
);
unicode = 88;
},
{
glyphname = Y;
lastChange = "2021-10-22 01:42:01 +0000";
layers = (
{
layerId = m002;
shapes = (
{
closed = 1;
nodes = (
(19,703,l),
(11,697,l),
(316,351,l),
(324,357,l)
);
},
{
closed = 1;
nodes = (
(336,400,l),
(344,394,l),
(528,651,l),
(520,657,l)
);
},
{
closed = 1;
nodes = (
(545,694,l),
(545,704,l),
(95,704,l),
(95,694,l)
);
},
{
closed = 1;
nodes = (
(350,338,l),
(340,338,l),
(300,-86,l),
(310,-86,l)
);
},
{
closed = 1;
nodes = (
(400,417,l),
(390,417,l),
(350,-80,l),
(360,-80,l)
);
},
{
closed = 1;
nodes = (
(334,-113,l),
(330,-103,l),
(125,-174,l),
(129,-184,l)
);
}
);
width = 555;
},
{
layerId = m003;
shapes = (
{
closed = 1;
nodes = (
(150,766,l),
(0,634,l),
(305,288,l),
(455,420,l)
);
},
{
closed = 1;
nodes = (
(319,455,l),
(481,339,l),
(665,596,l),
(503,712,l)
);
},
{
closed = 1;
nodes = (
(605,599,l),
(605,799,l),
(155,799,l),
(155,599,l)
);
},
{
closed = 1;
nodes = (
(505,329,l),
(305,347,l),
(265,-77,l),
(465,-95,l)
);
},
{
closed = 1;
nodes = (
(555,409,l),
(355,425,l),
(315,-72,l),
(515,-88,l)
);
},
{
closed = 1;
nodes = (
(425,-202,l),
(359,-14,l),
(154,-85,l),
(220,-273,l)
);
}
);
width = 670;
}
);
unicode = 89;
},
{
glyphname = Z;
lastChange = "2021-10-22 01:42:23 +0000";
layers = (
{
layerId = m002;
shapes = (
{
closed = 1;
nodes = (
(65,700,l),
(55,700,l),
(63,445,l),
(73,445,l)
);
},
{
closed = 1;
nodes = (
(96,701,l),
(96,691,l),
(581,695,l),
(581,705,l)
);
},
{
closed = 1;
nodes = (
(113,609,l),
(115,599,l),
(473,660,l),
(471,670,l)
);
},
{
closed = 1;
nodes = (
(523,652,l),
(515,658,l),
(31,10,l),
(39,4,l)
);
},
{
closed = 1;
nodes = (
(607,662,l),
(599,668,l),
(168,50,l),
(176,44,l)
);
},
{
closed = 1;
nodes = (
(96,5,l),
(96,-5,l),
(603,-5,l),
(603,5,l)
);
},
{
closed = 1;
nodes = (
(265,108,l),
(257,102,l),
(320,19,l),
(328,25,l)
);
}
);
width = 633;
},
{
layerId = m003;
shapes = (
{
closed = 1;
nodes = (
(220,703,l),
(20,697,l),
(28,442,l),
(228,448,l)
);
},
{
closed = 1;
nodes = (
(155,796,l),
(157,596,l),
(642,600,l),
(640,800,l)
);
},
{
closed = 1;
nodes = (
(157,703,l),
(191,505,l),
(549,566,l),
(515,764,l)
);
},
{
closed = 1;
nodes = (
(659,595,l),
(499,715,l),
(15,67,l),
(175,-53,l)
);
},
{
closed = 1;
nodes = (
(745,608,l),
(581,722,l),
(150,104,l),
(314,-10,l)
);
},
{
closed = 1;
nodes = (
(156,100,l),
(156,-100,l),
(663,-100,l),
(663,100,l)
);
},
{
closed = 1;
nodes = (
(401,165,l),
(241,45,l),
(304,-38,l),
(464,82,l)
);
}
);
width = 757;
}
);
unicode = 90;
},
{
glyphname = zero;
lastChange = "2021-10-22 01:42:27 +0000";
layers = (
{
layerId = m002;
shapes = (
{
closed = 1;
nodes = (
(65,657,l),
(55,657,l),
(55,10,l),
(65,10,l)
);
},
{
closed = 1;
nodes = (
(104,649,l),
(94,649,l),
(127,57,l),
(137,57,l)
);
},
{
closed = 1;
nodes = (
(127,15,l),
(127,5,l),
(404,-10,l),
(404,0,l)
);
},
{
closed = 1;
nodes = (
(418,19,l),
(428,19,l),
(428,658,l),
(418,658,l)
);
},
{
closed = 1;
nodes = (
(99,705,l),
(99,695,l),
(395,695,l),
(395,705,l)
);
}
);
width = 483;
},
{
layerId = m003;
shapes = (
{
closed = 1;
nodes = (
(230,657,l),
(30,657,l),
(30,10,l),
(230,10,l)
);
},
{
closed = 1;
nodes = (
(269,655,l),
(69,643,l),
(102,51,l),
(302,63,l)
);
},
{
closed = 1;
nodes = (
(202,110,l),
(192,-90,l),
(469,-105,l),
(479,95,l)
);
},
{
closed = 1;
nodes = (
(393,19,l),
(593,19,l),
(593,658,l),
(393,658,l)
);
},
{
closed = 1;
nodes = (
(169,800,l),
(169,600,l),
(465,600,l),
(465,800,l)
);
}
);
width = 623;
}
);
unicode = 48;
},
{
glyphname = one;
lastChange = "2021-10-22 01:42:32 +0000";
layers = (
{
layerId = m002;
shapes = (
{
closed = 1;
nodes = (
(18,619,l),
(22,609,l),
(288,715,l),
(284,725,l)
);
},
{
closed = 1;
nodes = (
(229,644,l),
(219,644,l),
(207,0,l),
(217,0,l)
);
},
{
closed = 1;
nodes = (
(313,688,l),
(303,688,l),
(248,28,l),
(258,28,l)
);
},
{
closed = 1;
nodes = (
(354,657,l),
(344,657,l),
(319,0,l),
(329,0,l)
);
},
{
closed = 1;
nodes = (
(36,5,l),
(36,-5,l),
(492,-41,l),
(492,-31,l)
);
}
);
width = 502;
},
{
layerId = m003;
shapes = (
{
closed = 1;
nodes = (
(10,707,l),
(84,521,l),
(350,627,l),
(276,813,l)
);
},
{
closed = 1;
nodes = (
(351,642,l),
(151,646,l),
(139,2,l),
(339,-2,l)
);
},
{
closed = 1;
nodes = (
(435,680,l),
(235,696,l),
(180,36,l),
(380,20,l)
);
},
{
closed = 1;
nodes = (
(476,653,l),
(276,661,l),
(251,4,l),
(451,-4,l)
);
},
{
closed = 1;
nodes = (
(71,100,l),
(55,-100,l),
(511,-136,l),
(527,64,l)
);
}
);
width = 532;
}
);
unicode = 49;
},
{
glyphname = two;
lastChange = "2021-10-22 01:42:38 +0000";
layers = (
{
layerId = m002;
shapes = (
{
closed = 1;
nodes = (
(21,599,l),
(25,589,l),
(349,720,l),
(345,730,l)
);
},
{
closed = 1;
nodes = (
(397,711,l),
(391,703,l),
(541,592,l),
(547,600,l)
);
},
{
closed = 1;
nodes = (
(557,550,l),
(551,558,l),
(49,69,l),
(55,61,l)
);
},
{
closed = 1;
nodes = (
(204,137,l),
(204,127,l),
(573,122,l),
(573,132,l)
);
},
{
closed = 1;
nodes = (
(144,70,l),
(144,60,l),
(573,57,l),
(573,67,l)
);
},
{
closed = 1;
nodes = (
(56,-4,l),
(56,-14,l),
(575,-14,l),
(575,-4,l)
);
}
);
width = 610;
},
{
layerId = m003;
shapes = (
{
closed = 1;
nodes = (
(9,687,l),
(83,501,l),
(407,632,l),
(333,818,l)
);
},
{
closed = 1;
nodes = (
(476,787,l),
(358,627,l),
(508,516,l),
(626,676,l)
);
},
{
closed = 1;
nodes = (
(647,482,l),
(507,626,l),
(5,137,l),
(145,-7,l)
);
},
{
closed = 1;
nodes = (
(228,232,l),
(226,32,l),
(595,27,l),
(597,227,l)
);
},
{
closed = 1;
nodes = (
(168,165,l),
(166,-35,l),
(595,-38,l),
(597,162,l)
);
},
{
closed = 1;
nodes = (
(79,91,l),
(79,-109,l),
(598,-109,l),
(598,91,l)
);
}
);
width = 652;
}
);
unicode = 50;
},
{
glyphname = three;
lastChange = "2021-10-22 01:42:44 +0000";
layers = (
{
layerId = m002;
shapes = (
{
closed = 1;
nodes = (
(29,729,l),
(27,719,l),
(464,666,l),
(466,676,l)
);
},
{
closed = 1;
nodes = (
(120,659,l),
(120,649,l),
(403,621,l),
(403,631,l)
);
},
{
closed = 1;
nodes = (
(402,579,l),
(392,579,l),
(392,58,l),
(402,58,l)
);
},
{
closed = 1;
nodes = (
(484,640,l),
(474,640,l),
(474,95,l),
(484,95,l)
);
},
{
closed = 1;
nodes = (
(155,371,l),
(155,361,l),
(452,361,l),
(452,371,l)
);
},
{
closed = 1;
nodes = (
(19,-44,l),
(21,-54,l),
(489,20,l),
(487,30,l)
);
}
);
width = 548;
},
{
layerId = m003;
shapes = (
{
closed = 1;
nodes = (
(40,823,l),
(16,625,l),
(453,572,l),
(477,770,l)
);
},
{
closed = 1;
nodes = (
(130,754,l),
(110,554,l),
(393,526,l),
(413,726,l)
);
},
{
closed = 1;
nodes = (
(497,579,l),
(297,579,l),
(297,58,l),
(497,58,l)
);
},
{
closed = 1;
nodes = (
(579,640,l),
(379,640,l),
(379,95,l),
(579,95,l)
);
},
{
closed = 1;
nodes = (
(155,466,l),
(155,266,l),
(452,266,l),
(452,466,l)
);
},
{
closed = 1;
nodes = (
(4,50,l),
(36,-148,l),
(504,-74,l),
(472,124,l)
);
}
);
width = 609;
}
);
unicode = 51;
},
{
glyphname = four;
lastChange = "2021-10-22 01:42:55 +0000";
layers = (
{
layerId = m002;
shapes = (
{
closed = 1;
nodes = (
(133,714,l),
(123,716,l),
(33,310,l),
(43,308,l)
);
},
{
closed = 1;
nodes = (
(338,593,l),
(328,593,l),
(340,0,l),
(350,0,l)
);
},
{
closed = 1;
nodes = (
(412,590,l),
(402,590,l),
(402,-58,l),
(412,-58,l)
);
},
{
closed = 1;
nodes = (
(34,258,l),
(36,248,l),
(490,304,l),
(488,314,l)
);
},
{
closed = 1;
nodes = (
(118,187,l),
(128,185,l),
(240,738,l),
(230,740,l)
);
}
);
width = 519;
},
{
layerId = m003;
shapes = (
{
closed = 1;
nodes = (
(301,693,l),
(105,737,l),
(15,331,l),
(211,287,l)
);
},
{
closed = 1;
nodes = (
(508,595,l),
(308,591,l),
(320,-2,l),
(520,2,l)
);
},
{
closed = 1;
nodes = (
(582,590,l),
(382,590,l),
(382,-58,l),
(582,-58,l)
);
},
{
closed = 1;
nodes = (
(98,352,l),
(122,154,l),
(576,210,l),
(552,408,l)
);
},
{
closed = 1;
nodes = (
(100,206,l),
(296,166,l),
(408,719,l),
(212,759,l)
);
}
);
width = 612;
}
);
unicode = 52;
},
{
glyphname = five;
lastChange = "2021-10-22 01:43:05 +0000";
layers = (
{
layerId = m002;
shapes = (
{
closed = 1;
nodes = (
(65,659,l),
(67,649,l),
(506,754,l),
(504,764,l)
);
},
{
closed = 1;
nodes = (
(73,619,l),
(63,619,l),
(63,423,l),
(73,423,l)
);
},
{
closed = 1;
nodes = (
(135,727,l),
(125,727,l),
(125,445,l),
(135,445,l)
);
},
{
closed = 1;
nodes = (
(126,408,l),
(126,398,l),
(416,378,l),
(416,388,l)
);
},
{
closed = 1;
nodes = (
(463,364,l),
(453,364,l),
(453,49,l),
(463,49,l)
);
},
{
closed = 1;
nodes = (
(434,-5,l),
(432,5,l),
(24,-86,l),
(26,-96,l)
);
}
);
width = 530;
},
{
layerId = m003;
shapes = (
{
closed = 1;
nodes = (
(90,751,l),
(136,557,l),
(575,662,l),
(529,856,l)
);
},
{
closed = 1;
nodes = (
(215,619,l),
(15,619,l),
(15,423,l),
(215,423,l)
);
},
{
closed = 1;
nodes = (
(277,727,l),
(77,727,l),
(77,445,l),
(277,445,l)
);
},
{
closed = 1;
nodes = (
(180,503,l),
(166,303,l),
(456,283,l),
(470,483,l)
);
},
{
closed = 1;
nodes = (
(605,364,l),
(405,364,l),
(405,49,l),
(605,49,l)
);
},
{
closed = 1;
nodes = (
(502,-98,l),
(458,98,l),
(50,7,l),
(94,-189,l)
);
}
);
width = 620;
}
);
unicode = 53;
},
{
glyphname = six;
lastChange = "2021-10-22 01:43:11 +0000";
layers = (
{
layerId = m002;
shapes = (
{
closed = 1;
nodes = (
(476,791,l),
(472,799,l),
(105,617,l),
(109,609,l)
);
},
{
closed = 1;
nodes = (
(90,577,l),
(80,577,l),
(45,-1,l),
(55,-1,l)
);
},
{
closed = 1;
nodes = (
(129,569,l),
(119,569,l),
(127,32,l),
(137,32,l)
);
},
{
closed = 1;
nodes = (
(93,-18,l),
(99,-26,l),
(471,274,l),
(465,282,l)
);
},
{
closed = 1;
nodes = (
(99,421,l),
(97,411,l),
(454,323,l),
(456,333,l)
);
}
);
width = 499;
},
{
layerId = m003;
shapes = (
{
closed = 1;
nodes = (
(598,705,l),
(510,885,l),
(143,703,l),
(231,523,l)
);
},
{
closed = 1;
nodes = (
(265,571,l),
(65,583,l),
(30,5,l),
(230,-7,l)
);
},
{
closed = 1;
nodes = (
(304,570,l),
(104,568,l),
(112,31,l),
(312,33,l)
);
},
{
closed = 1;
nodes = (
(113,56,l),
(239,-100,l),
(611,200,l),
(485,356,l)
);
},
{
closed = 1;
nodes = (
(202,513,l),
(154,319,l),
(511,231,l),
(559,425,l)
);
}
);
width = 626;
}
);
unicode = 54;
},
{
glyphname = seven;
lastChange = "2021-10-22 01:43:38 +0000";
layers = (
{
layerId = m002;
shapes = (
{
closed = 1;
nodes = (
(10,709,l),
(10,699,l),
(500,690,l),
(500,700,l)
);
},
{
closed = 1;
nodes = (
(394,623,l),
(384,627,l),
(135,-95,l),
(145,-99,l)
);
},
{
closed = 1;
nodes = (
(505,656,l),
(495,660,l),
(230,-16,l),
(240,-20,l)
);
},
{
closed = 1;
nodes = (
(160,368,l),
(160,358,l),
(509,327,l),
(509,337,l)
);
}
);
width = 544;
},
{
layerId = m003;
shapes = (
{
closed = 1;
nodes = (
(8,804,l),
(4,604,l),
(494,595,l),
(498,795,l)
);
},
{
closed = 1;
nodes = (
(480,592,l),
(290,658,l),
(41,-64,l),
(231,-130,l)
);
},
{
closed = 1;
nodes = (
(589,622,l),
(403,694,l),
(138,18,l),
(324,-54,l)
);
},
{
closed = 1;
nodes = (
(165,463,l),
(147,263,l),
(496,232,l),
(514,432,l)
);
}
);
width = 604;
}
);
unicode = 55;
},
{
glyphname = eight;
lastChange = "2021-10-29 01:46:37 +0000";
layers = (
{
layerId = m002;
shapes = (
{
closed = 1;
nodes = (
(171,416,l),
(161,420,l),
(55,110,l),
(65,106,l)
);
},
{
closed = 1;
nodes = (
(367,-18,l),
(71,73,l),
(69,63,l),
(365,-28,l)
);
},
{
closed = 1;
nodes = (
(470,206,l),
(460,210,l),
(376,-1,l),
(386,-5,l)
);
},
{
closed = 1;
nodes = (
(168,458,l),
(38,568,l),
(32,560,l),
(162,450,l)
);
},
{
closed = 1;
nodes = (
(344,440,l),
(344,450,l),
(204,446,l),
(204,436,l)
);
},
{
closed = 1;
nodes = (
(471,239,l),
(383,421,l),
(373,417,l),
(461,235,l)
);
},
{
closed = 1;
nodes = (
(215,718,l),
(209,726,l),
(44,604,l),
(50,596,l)
);
},
{
closed = 1;
nodes = (
(472,558,l),
(464,564,l),
(381,454,l),
(389,448,l)
);
},
{
closed = 1;
nodes = (
(475,603,l),
(259,731,l),
(253,723,l),
(469,595,l)
);
}
);
width = 507;
},
{
layerId = m003;
shapes = (
{
closed = 1;
nodes = (
(311,386,l),
(121,450,l),
(15,140,l),
(205,76,l)
);
},
{
closed = 1;
nodes = (
(445,73,l),
(149,164,l),
(91,-28,l),
(387,-119,l)
);
},
{
closed = 1;
nodes = (
(608,171,l),
(422,245,l),
(338,34,l),
(524,-40,l)
);
},
{
closed = 1;
nodes = (
(280,530,l),
(150,640,l),
(20,488,l),
(150,378,l)
);
},
{
closed = 1;
nodes = (
(397,345,l),
(391,545,l),
(251,541,l),
(257,341,l)
);
},
{
closed = 1;
nodes = (
(606,281,l),
(518,463,l),
(338,375,l),
(426,193,l)
);
},
{
closed = 1;
nodes = (
(321,642,l),
(203,802,l),
(38,680,l),
(156,520,l)
);
},
{
closed = 1;
nodes = (
(598,501,l),
(438,621,l),
(355,511,l),
(515,391,l)
);
},
{
closed = 1;
nodes = (
(573,685,l),
(357,813,l),
(255,641,l),
(471,513,l)
);
}
);
width = 623;
}
);
unicode = 56;
},
{
glyphname = nine;
lastChange = "2021-10-22 01:43:52 +0000";
layers = (
{
layerId = m002;
shapes = (
{
closed = 1;
nodes = (
(345,696,l),
(339,704,l),
(52,524,l),
(58,516,l)
);
},
{
closed = 1;
nodes = (
(39,479,l),
(31,473,l),
(158,299,l),
(166,305,l)
);
},
{
closed = 1;
nodes = (
(180,285,l),
(182,275,l),
(340,317,l),
(338,327,l)
);
},
{
closed = 1;
nodes = (
(411,700,l),
(401,700,l),
(375,-84,l),
(385,-84,l)
);
},
{
closed = 1;
nodes = (
(483,700,l),
(473,700,l),
(473,80,l),
(483,80,l)
);
}
);
width = 538;
},
{
layerId = m003;
shapes = (
{
closed = 1;
nodes = (
(453,615,l),
(347,785,l),
(60,605,l),
(166,435,l)
);
},
{
closed = 1;
nodes = (
(174,535,l),
(12,417,l),
(139,243,l),
(301,361,l)
);
},
{
closed = 1;
nodes = (
(213,377,l),
(265,183,l),
(423,225,l),
(371,419,l)
);
},
{
closed = 1;
nodes = (
(564,697,l),
(364,703,l),
(338,-81,l),
(538,-87,l)
);
},
{
closed = 1;
nodes = (
(636,700,l),
(436,700,l),
(436,80,l),
(636,80,l)
);
}
);
width = 666;
}
);
unicode = 57;
},
{
glyphname = .notdef;
lastChange = "2022-08-24 08:19:16 +0000";
layers = (
{
background = {
shapes = (
{
closed = 0;
nodes = (
(88,787,l),
(733,805,l)
);
},
{
closed = 0;
nodes = (
(759,730,l),
(761,121,l)
);
},
{
closed = 0;
nodes = (
(744,1,l),
(201,-4,l)
);
},
{
closed = 0;
nodes = (
(88,-10,l),
(85,731,l)
);
},
{
closed = 0;
nodes = (
(243,618,l),
(625,134,l)
);
},
{
closed = 0;
nodes = (
(609,684,l),
(234,93,l)
);
}
);
};
layerId = m002;
shapes = (
{
closed = 1;
nodes = (
(613,681,l),
(605,687,l),
(230,96,l),
(238,90,l)
);
},
{
closed = 1;
nodes = (
(93,-10,l),
(90,731,l),
(80,731,l),
(83,-10,l)
);
},
{
closed = 1;
nodes = (
(744,-4,l),
(744,6,l),
(201,1,l),
(201,-9,l)
);
},
{
closed = 1;
nodes = (
(629,137,l),
(247,621,l),
(239,615,l),
(621,131,l)
);
},
{
closed = 1;
nodes = (
(766,121,l),
(764,730,l),
(754,730,l),
(756,121,l)
);
},
{
closed = 1;
nodes = (
(733,800,l),
(733,810,l),
(88,792,l),
(88,782,l)
);
}
);
width = 846;
},
{
layerId = m003;
shapes = (
{
closed = 1;
nodes = (
(738,630,l),
(570,738,l),
(195,147,l),
(363,39,l)
);
},
{
closed = 1;
nodes = (
(233,-10,l),
(230,731,l),
(30,731,l),
(33,-10,l)
);
},
{
closed = 1;
nodes = (
(790,-99,l),
(788,101,l),
(245,96,l),
(247,-104,l)
);
},
{
closed = 1;
nodes = (
(748,196,l),
(366,680,l),
(210,556,l),
(592,72,l)
);
},
{
closed = 1;
nodes = (
(906,121,l),
(904,730,l),
(704,730,l),
(706,121,l)
);
},
{
closed = 1;
nodes = (
(781,705,l),
(775,905,l),
(130,887,l),
(136,687,l)
);
}
);
width = 936;
}
);
},
{
glyphname = period;
lastChange = "2021-10-22 01:47:13 +0000";
layers = (
{
layerId = m002;
shapes = (
{
closed = 1;
nodes = (
(142,166,l),
(134,174,l),
(46,87,l),
(54,79,l)
);
},
{
closed = 1;
nodes = (
(68,35,l),
(62,27,l),
(164,-34,l),
(170,-26,l)
);
},
{
closed = 1;
nodes = (
(201,-23,l),
(207,-31,l),
(291,43,l),
(285,51,l)
);
},
{
closed = 1;
nodes = (
(189,161,l),
(183,153,l),
(273,79,l),
(279,87,l)
);
}
);
width = 338;
},
{
layerId = m003;
shapes = (
{
closed = 1;
nodes = (
(238,99,l),
(98,241,l),
(10,154,l),
(150,12,l)
);
},
{
closed = 1;
nodes = (
(146,117,l),
(44,-55,l),
(146,-116,l),
(248,56,l)
);
},
{
closed = 1;
nodes = (
(168,48,l),
(300,-102,l),
(384,-28,l),
(252,122,l)
);
},
{
closed = 1;
nodes = (
(280,234,l),
(152,80,l),
(242,6,l),
(370,160,l)
);
}
);
width = 394;
}
);
unicode = 46;
},
{
glyphname = comma;
lastChange = "2021-10-22 01:47:21 +0000";
layers = (
{
layerId = m002;
shapes = (
{
closed = 1;
nodes = (
(215,166,l),
(211,174,l),
(95,109,l),
(99,101,l)
);
},
{
closed = 1;
nodes = (
(87,58,l),
(81,50,l),
(239,-53,l),
(245,-45,l)
);
},
{
closed = 1;
nodes = (
(274,-169,l),
(284,-171,l),
(327,-1,l),
(317,1,l)
);
},
{
closed = 1;
nodes = (
(265,159,l),
(257,155,l),
(313,58,l),
(321,62,l)
);
},
{
closed = 1;
nodes = (
(242,-193,l),
(240,-183,l),
(44,-235,l),
(46,-245,l)
);
}
);
width = 372;
},
{
layerId = m003;
shapes = (
{
closed = 1;
nodes = (
(248,83,l),
(150,257,l),
(34,192,l),
(132,18,l)
);
},
{
closed = 1;
nodes = (
(125,138,l),
(15,-30,l),
(173,-133,l),
(283,35,l)
);
},
{
closed = 1;
nodes = (
(168,-145,l),
(362,-195,l),
(405,-25,l),
(211,25,l)
);
},
{
closed = 1;
nodes = (
(334,207,l),
(160,107,l),
(216,10,l),
(390,110,l)
);
},
{
closed = 1;
nodes = (
(253,-285,l),
(201,-91,l),
(5,-143,l),
(57,-337,l)
);
}
);
width = 410;
}
);
unicode = 44;
},
{
glyphname = hyphen;
lastChange = "2021-10-22 01:47:21 +0000";
layers = (
{
layerId = m002;
shapes = (
{
closed = 1;
nodes = (
(56,339,l),
(56,329,l),
(288,347,l),
(288,357,l)
);
},
{
closed = 1;
nodes = (
(41,290,l),
(39,280,l),
(143,263,l),
(145,273,l)
);
},
{
closed = 1;
nodes = (
(184,272,l),
(186,262,l),
(306,295,l),
(304,305,l)
);
}
